#N canvas 0 185 1091 457 12;
#X obj 0 -214 cnv 15 1666 1333 empty empty empty 20 12 0 14 #b8b8b8 #404040 0;
#X msg 151 393 disconnect;
#X obj 19 394 netsend -u -b;
#X msg 26 371 connect 192.168.178.176 8020;
#X obj 19 324 oscformat source/1/azim;
#X obj 27 348 loadbang;
#X obj 140 240 hsl 162 19 0.5 15 0 0 empty empty empty -2 -10 0 12 #faff00 #000000 #000000 0 1;
#X obj 126 265 oscformat source/1/dist;
#X floatatom 138 122 5 0 0 0 - - - 0;
#X obj 138 145 / 9;
#X obj 138 193 line;
#X obj 138 217 + 0.5;
#X obj 138 169 pack 0 122;
#X obj 512 243 hsl 162 19 -180 180 0 0 empty empty empty -2 -10 0 12 #ff8300 #000000 #000000 0 1;
#X obj 506 265 oscformat source/1/yaw;
#X obj 19 33 ctlin, f 15;
#X obj 20 57 swap, f 8;
#X obj 20 79 pack f f;
#X obj 21 101 route 33 1;
#X obj 54 124 * 128;
#X obj 20 150 +, f 10;
#X obj 25 124 t b;
#X floatatom 20 174 5 0 0 0 - - - 0;
#X obj 20 196 - 180;
#X obj 507 62 ctlin, f 15;
#X obj 508 86 swap, f 8;
#X obj 508 108 pack f f;
#X obj 542 153 * 128;
#X obj 508 179 +, f 10;
#X obj 513 153 t b;
#X floatatom 509 200 5 0 0 0 - - - 0;
#X obj 509 130 route 36 4;
#X obj 510 221 - 180;
#X obj 138 99 ctlin 2 1;
#X floatatom 322 148 5 0 0 0 - - - 0;
#X obj 322 219 line;
#X obj 322 195 pack 0 122;
#X obj 322 125 ctlin 3 1;
#X obj 320 265 oscformat source/1/scale;
#X floatatom 327 243 5 0 0 0 - - - 0;
#X obj 323 173 / 20;
#X obj 727 245 snapshot~;
#X obj 747 202 env~;
#X obj 747 226 t b;
#X obj 712 288 * 360;
#X obj 18 303 +;
#X obj 50 284 t b f;
#X obj 699 121 phasor~ -0.5;
#X obj 698 53 ctlin 6, f 14;
#X obj 698 73 / 20;
#X obj 698 95 - 3;
#X obj 800 270 ctlin 7, f 11;
#X obj 747 311 t b f;
#X obj 712 331 *, f 5;
#X obj 800 292 / 100;
#X obj 921 112 ctlin 5, f 16;
#X obj 921 132 sel 0;
#X msg 922 189 1;
#X msg 803 151 0;
#X obj 862 170 osc~ -0.5;
#X obj 862 208 *~, f 5;
#X msg 825 150 1;
#X msg 946 189 0;
#X obj 762 151 tgl 19 0 empty empty empty 0 -10 0 12 #fcfcfc #000000 #000000 0 1;
#X obj 894 190 tgl 19 0 empty empty empty 0 -10 0 12 #fcfcfc #000000 #000000 0 1;
#X floatatom 779 72 5 0 0 0 - - - 0;
#X floatatom 728 97 6 0 0 0 - - - 0;
#X obj 862 228 /~ 2, f 5;
#X obj 724 168 *~ 1, f 5;
#X text 324 66 http://servando.teks.no;
#X connect 1 0 2 0;
#X connect 3 0 2 0;
#X connect 4 0 2 0;
#X connect 5 0 3 0;
#X connect 6 0 7 0;
#X connect 7 0 2 0;
#X connect 8 0 9 0;
#X connect 9 0 12 0;
#X connect 10 0 11 0;
#X connect 11 0 6 0;
#X connect 12 0 10 0;
#X connect 13 0 14 0;
#X connect 14 0 2 0;
#X connect 15 0 16 0;
#X connect 15 1 16 1;
#X connect 16 0 17 0;
#X connect 16 1 17 1;
#X connect 17 0 18 0;
#X connect 18 0 20 0;
#X connect 18 1 19 0;
#X connect 19 0 20 1;
#X connect 19 0 21 0;
#X connect 20 0 22 0;
#X connect 21 0 20 0;
#X connect 22 0 23 0;
#X connect 23 0 45 0;
#X connect 24 0 25 0;
#X connect 24 1 25 1;
#X connect 25 0 26 0;
#X connect 25 1 26 1;
#X connect 26 0 31 0;
#X connect 27 0 28 1;
#X connect 27 0 29 0;
#X connect 28 0 30 0;
#X connect 29 0 28 0;
#X connect 30 0 32 0;
#X connect 31 0 28 0;
#X connect 31 1 27 0;
#X connect 32 0 13 0;
#X connect 33 0 8 0;
#X connect 34 0 40 0;
#X connect 35 0 38 0;
#X connect 35 0 39 0;
#X connect 36 0 35 0;
#X connect 37 0 34 0;
#X connect 38 0 2 0;
#X connect 40 0 36 0;
#X connect 41 0 44 0;
#X connect 42 0 43 0;
#X connect 43 0 41 0;
#X connect 44 0 53 0;
#X connect 45 0 4 0;
#X connect 46 0 45 0;
#X connect 46 1 45 1;
#X connect 47 0 68 0;
#X connect 48 0 49 0;
#X connect 48 0 65 0;
#X connect 49 0 50 0;
#X connect 50 0 47 0;
#X connect 50 0 66 0;
#X connect 51 0 54 0;
#X connect 52 0 53 0;
#X connect 52 1 53 1;
#X connect 53 0 46 0;
#X connect 54 0 52 0;
#X connect 55 0 56 0;
#X connect 56 0 57 0;
#X connect 56 0 58 0;
#X connect 56 1 61 0;
#X connect 56 1 62 0;
#X connect 57 0 60 1;
#X connect 57 0 64 0;
#X connect 58 0 63 0;
#X connect 58 0 68 1;
#X connect 59 0 60 0;
#X connect 60 0 67 0;
#X connect 61 0 63 0;
#X connect 61 0 68 1;
#X connect 62 0 60 1;
#X connect 62 0 64 0;
#X connect 66 0 59 0;
#X connect 67 0 41 0;
#X connect 67 0 42 0;
#X connect 68 0 41 0;
#X connect 68 0 42 0;
